<svg width="85" height="85" viewBox="0 0 85 85" fill="none" xmlns="http://www.w3.org/2000/svg">
<g id="Book open">
<g id="Icon">
<path d="M42.5006 24.7917C42.5006 21.0344 41.0081 17.4311 38.3513 14.7743C35.6946 12.1176 32.0912 10.625 28.334 10.625H7.08398V63.75H31.8756C34.6936 63.75 37.3961 64.8694 39.3887 66.862C41.3812 68.8546 42.5006 71.5571 42.5006 74.375M42.5006 24.7917V74.375M42.5006 24.7917C42.5006 21.0344 43.9932 17.4311 46.65 14.7743C49.3067 12.1176 52.9101 10.625 56.6673 10.625H77.9173V63.75H53.1256C50.3077 63.75 47.6052 64.8694 45.6126 66.862C43.6201 68.8546 42.5006 71.5571 42.5006 74.375" stroke="white" stroke-width="4" stroke-linecap="round" stroke-linejoin="round"/>
<path d="M42.5006 24.7917C42.5006 21.0344 41.0081 17.4311 38.3513 14.7743C35.6946 12.1176 32.0912 10.625 28.334 10.625H7.08398V63.75H31.8756C34.6936 63.75 37.3961 64.8694 39.3887 66.862C41.3812 68.8546 42.5006 71.5571 42.5006 74.375M42.5006 24.7917V74.375M42.5006 24.7917C42.5006 21.0344 43.9932 17.4311 46.65 14.7743C49.3067 12.1176 52.9101 10.625 56.6673 10.625H77.9173V63.75H53.1256C50.3077 63.75 47.6052 64.8694 45.6126 66.862C43.6201 68.8546 42.5006 71.5571 42.5006 74.375" stroke="white" stroke-opacity="0.29" stroke-width="4" stroke-linecap="round" stroke-linejoin="round"/>
</g>
</g>
</svg>
