<svg width="38" height="38" viewBox="0 0 38 38" fill="none" xmlns="http://www.w3.org/2000/svg">
<g id="Instagram">
<path id="Icon" d="M27.7077 10.2917H27.7235M11.0827 3.16669H26.916C31.2883 3.16669 34.8327 6.7111 34.8327 11.0834V26.9167C34.8327 31.2889 31.2883 34.8334 26.916 34.8334H11.0827C6.71043 34.8334 3.16602 31.2889 3.16602 26.9167V11.0834C3.16602 6.7111 6.71043 3.16669 11.0827 3.16669ZM25.3327 18.0025C25.5281 19.3202 25.303 20.666 24.6895 21.8485C24.0759 23.0309 23.1052 23.9898 21.9153 24.5887C20.7253 25.1876 19.3769 25.396 18.0617 25.1844C16.7465 24.9728 15.5315 24.3518 14.5895 23.4099C13.6476 22.4679 13.0266 21.2529 12.815 19.9377C12.6033 18.6225 12.8118 17.274 13.4107 16.0841C14.0096 14.8942 14.9685 13.9234 16.1509 13.3099C17.3333 12.6964 18.6791 12.4713 19.9968 12.6667C21.341 12.866 22.5854 13.4923 23.5462 14.4532C24.507 15.414 25.1334 16.6584 25.3327 18.0025Z" stroke="white" stroke-width="4" stroke-linecap="round" stroke-linejoin="round"/>
</g>
</svg>
