<svg width="25" height="20" viewBox="0 0 25 20" fill="none" xmlns="http://www.w3.org/2000/svg">
<g id="Map pin">
<g id="Icon">
<path d="M21.875 8.33331C21.875 14.1666 12.5 19.1666 12.5 19.1666C12.5 19.1666 3.125 14.1666 3.125 8.33331C3.125 6.34419 4.11272 4.43653 5.87087 3.03001C7.62903 1.62349 10.0136 0.833313 12.5 0.833313C14.9864 0.833313 17.371 1.62349 19.1291 3.03001C20.8873 4.43653 21.875 6.34419 21.875 8.33331Z" stroke="white" stroke-linecap="round" stroke-linejoin="round"/>
<path d="M12.5 10.8333C14.2259 10.8333 15.625 9.71402 15.625 8.33331C15.625 6.9526 14.2259 5.83331 12.5 5.83331C10.7741 5.83331 9.375 6.9526 9.375 8.33331C9.375 9.71402 10.7741 10.8333 12.5 10.8333Z" stroke="white" stroke-linecap="round" stroke-linejoin="round"/>
</g>
</g>
</svg>
