<svg width="45" height="45" viewBox="0 0 45 45" fill="none" xmlns="http://www.w3.org/2000/svg">
<g id="Phone">
<path id="Icon" d="M41.2492 31.7251V37.3501C41.2513 37.8723 41.1444 38.3891 40.9352 38.8676C40.726 39.346 40.4191 39.7755 40.0343 40.1286C39.6496 40.4816 39.1953 40.7503 38.7006 40.9176C38.2059 41.0849 37.6818 41.1471 37.1617 41.1001C31.392 40.4731 25.8498 38.5016 20.9805 35.3438C16.4501 32.4651 12.6092 28.6241 9.73045 24.0938C6.56166 19.2023 4.58966 13.6332 3.9742 7.83756C3.92735 7.31906 3.98897 6.79649 4.15514 6.30311C4.32131 5.80973 4.5884 5.35635 4.93939 4.97185C5.29038 4.58735 5.71759 4.28014 6.19381 4.06979C6.67004 3.85944 7.18484 3.75055 7.70545 3.75006H13.3305C14.2404 3.7411 15.1226 4.06333 15.8125 4.65668C16.5024 5.25003 16.9531 6.07402 17.0805 6.97506C17.3179 8.77518 17.7582 10.5427 18.393 12.2438C18.6452 12.9149 18.6998 13.6443 18.5503 14.3455C18.4007 15.0466 18.0533 15.6903 17.5492 16.2001L15.168 18.5813C17.8371 23.2755 21.7238 27.1621 26.418 29.8313L28.7992 27.4501C29.309 26.9459 29.9526 26.5985 30.6538 26.449C31.355 26.2994 32.0843 26.354 32.7555 26.6063C34.4566 27.2411 36.2241 27.6814 38.0242 27.9188C38.935 28.0473 39.7668 28.5061 40.3615 29.2079C40.9561 29.9097 41.272 30.8055 41.2492 31.7251Z" fill="white" stroke="white" stroke-linecap="round" stroke-linejoin="round"/>
</g>
</svg>
