<svg width="38" height="38" viewBox="0 0 38 38" fill="none" xmlns="http://www.w3.org/2000/svg">
<g id="Twitter" clip-path="url(#clip0_284_1631)">
<path id="Icon" d="M36.4173 4.74999C34.9011 5.8195 33.2223 6.6375 31.4457 7.17249C30.4921 6.07605 29.2248 5.29892 27.8151 4.94621C26.4055 4.5935 24.9215 4.68222 23.5639 5.20038C22.2064 5.71853 21.0407 6.64113 20.2245 7.84338C19.4084 9.04563 18.9812 10.4695 19.0007 11.9225V13.5058C16.2182 13.578 13.461 12.9609 10.9747 11.7094C8.4885 10.458 6.35032 8.61116 4.75065 6.33332C4.75065 6.33332 -1.58268 20.5833 12.6673 26.9167C9.40649 29.1301 5.52198 30.24 1.58398 30.0833C15.834 38 33.2507 30.0833 33.2507 11.875C33.2492 11.434 33.2068 10.994 33.124 10.5608C34.7399 8.96719 35.8803 6.95512 36.4173 4.74999Z" stroke="white" stroke-width="4" stroke-linecap="round" stroke-linejoin="round"/>
</g>
<defs>
<clipPath id="clip0_284_1631">
<rect width="38" height="38" fill="white"/>
</clipPath>
</defs>
</svg>
