<svg width="12" height="16" viewBox="0 0 12 16" fill="none" xmlns="http://www.w3.org/2000/svg">
<g id="Icon" clip-path="url(#clip0_309_1209)">
<path id="Vector" d="M11.2162 12.3804C11.2162 12.9886 11.0419 13.5104 10.6931 13.9457C10.3443 14.3809 9.92439 14.5986 9.43331 14.5986H2.28488C1.79381 14.5986 1.37388 14.3809 1.02511 13.9457C0.676339 13.5104 0.501953 12.9886 0.501953 12.3804C0.501953 11.906 0.52567 11.4582 0.573103 11.0369C0.620536 10.6156 0.708426 10.1915 0.836775 9.76459C0.965123 9.33769 1.12835 8.97218 1.32645 8.66805C1.52455 8.36392 1.78683 8.11559 2.11328 7.92307C2.43973 7.73055 2.81501 7.63429 3.23912 7.63429C3.97014 8.34857 4.84347 8.70571 5.8591 8.70571C6.87472 8.70571 7.74805 8.34857 8.47907 7.63429C8.90318 7.63429 9.27846 7.73055 9.60491 7.92307C9.93136 8.11559 10.1936 8.36392 10.3917 8.66805C10.5898 8.97218 10.7531 9.33769 10.8814 9.76459C11.0098 10.1915 11.0977 10.6156 11.1451 11.0369C11.1925 11.4582 11.2162 11.906 11.2162 12.3804ZM8.1317 2.68312C8.1317 2.68312 8.28864 2.84006 8.60254 3.15396C8.91643 3.46785 9.07338 4.06844 9.07338 4.95572C9.07338 5.84299 8.75949 6.60053 8.1317 7.22832C7.50391 7.85611 6.74637 8.17 5.8591 8.17C4.97182 8.17 4.21429 7.85611 3.5865 7.22832C2.95871 6.60053 2.64481 5.84299 2.64481 4.95572C2.64481 4.06844 2.95871 3.3109 3.5865 2.68312C4.21429 2.05532 4.97182 1.74143 5.8591 1.74143C6.74637 1.74143 7.50391 2.05532 8.1317 2.68312Z" fill="white"/>
</g>
<defs>
<clipPath id="clip0_309_1209">
<rect width="11.72" height="15" fill="white" transform="matrix(1 0 0 -1 0 15.67)"/>
</clipPath>
</defs>
</svg>
